<svg width="63" height="43" viewBox="0 0 63 43" fill="none" xmlns="http://www.w3.org/2000/svg">
<rect width="62.61" height="43" rx="16" fill="#FACC15"/>
<path d="M26.305 19.3333H28.805V14.3333H33.805V19.3333H36.305V11.8333L31.305 8.08333L26.305 11.8333V19.3333ZM24.6383 21V11L31.305 6L37.9716 11V21H32.1383V16H30.4716V21H24.6383Z" fill="#422006"/>
<path d="M20.5967 33V30.3457H17.8984V33H16.6021V26.8081H17.8984V29.2734H20.5967V26.8081H21.8931V33H20.5967ZM30.0221 29.8755C30.0221 30.3589 29.9503 30.7983 29.8067 31.1938C29.6632 31.5894 29.4566 31.9277 29.1871 32.209C28.9176 32.4902 28.5887 32.707 28.2005 32.8594C27.8124 33.0117 27.3736 33.0879 26.8844 33.0879C26.3658 33.0879 25.9125 33.0081 25.5243 32.8484C25.1361 32.6887 24.8116 32.4661 24.5509 32.1804C24.2901 31.8948 24.0946 31.5557 23.9642 31.1631C23.8338 30.7705 23.7687 30.3413 23.7687 29.8755C23.7687 29.3921 23.8368 28.9556 23.973 28.5659C24.1092 28.1763 24.3099 27.8445 24.575 27.5706C24.8402 27.2966 25.1668 27.0857 25.555 26.9377C25.9432 26.7898 26.3893 26.7158 26.8932 26.7158C27.3971 26.7158 27.8431 26.7905 28.2313 26.9399C28.6195 27.0894 28.9461 27.3018 29.2113 27.5771C29.4764 27.8525 29.6778 28.1843 29.8155 28.5725C29.9532 28.9607 30.0221 29.395 30.0221 29.8755ZM28.6993 29.8755C28.6993 29.5503 28.6605 29.2566 28.5829 28.9944C28.5052 28.7322 28.3902 28.5073 28.2379 28.3198C28.0855 28.1323 27.8973 27.988 27.6732 27.887C27.4491 27.7859 27.1891 27.7354 26.8932 27.7354C26.5914 27.7354 26.327 27.7859 26.1 27.887C25.8729 27.988 25.6832 28.1323 25.5309 28.3198C25.3785 28.5073 25.2643 28.7322 25.1881 28.9944C25.1119 29.2566 25.0738 29.5503 25.0738 29.8755C25.0738 30.1978 25.1126 30.4929 25.1903 30.761C25.2679 31.0291 25.3829 31.2598 25.5353 31.4531C25.6876 31.6465 25.8766 31.7974 26.1021 31.9058C26.3277 32.0142 26.5885 32.0684 26.8844 32.0684C27.2008 32.0684 27.4732 32.0134 27.7018 31.9036C27.9303 31.7937 28.1185 31.6414 28.2665 31.4465C28.4144 31.2517 28.5235 31.0203 28.5938 30.7522C28.6642 30.4841 28.6993 30.1919 28.6993 29.8755ZM37.0437 33V29.2471C37.0437 29.0977 37.0458 28.9438 37.0502 28.7856C37.0546 28.6274 37.0598 28.4824 37.0656 28.3506C37.0744 28.1953 37.0817 28.0444 37.0876 27.8979C37.0261 28.1294 36.9675 28.3491 36.9118 28.5571C36.8884 28.645 36.8635 28.7358 36.8371 28.8296C36.8107 28.9233 36.7851 29.0142 36.7602 29.1021C36.7353 29.1899 36.7111 29.272 36.6877 29.3481C36.6643 29.4243 36.6438 29.4902 36.6262 29.5459L35.51 33H34.5871L33.4709 29.5459C33.4533 29.4902 33.4335 29.4243 33.4116 29.3481C33.3896 29.272 33.3662 29.1899 33.3413 29.1021C33.3164 29.0142 33.2907 28.9233 33.2644 28.8296C33.238 28.7358 33.2116 28.645 33.1853 28.5571C33.1267 28.3491 33.0651 28.1294 33.0007 27.8979C33.0095 28.0679 33.0183 28.2349 33.0271 28.3989C33.0329 28.5396 33.0388 28.6875 33.0446 28.8428C33.0505 28.998 33.0534 29.1328 33.0534 29.2471V33H31.9021V26.8081H33.6379L34.7453 30.271C34.7746 30.3618 34.8061 30.4731 34.8398 30.605C34.8735 30.7368 34.9064 30.8643 34.9387 30.9873C34.9738 31.1309 35.0119 31.2803 35.0529 31.4355C35.0939 31.2832 35.1335 31.1367 35.1716 30.9961C35.1892 30.9346 35.2067 30.8716 35.2243 30.8071C35.2419 30.7427 35.2595 30.6797 35.2771 30.6182C35.2946 30.5566 35.3122 30.498 35.3298 30.4424C35.3474 30.3867 35.3635 30.3369 35.3781 30.293L36.468 26.8081H38.195V33H37.0437ZM40.2991 33V26.8081H45.1683V27.8101H41.5955V29.3657H44.9002V30.3677H41.5955V31.998H45.3484V33H40.2991Z" fill="#422006"/>
</svg>
