<svg width="61" height="44" viewBox="0 0 61 44" fill="none" xmlns="http://www.w3.org/2000/svg">
<path d="M24.9092 21.8333C24.5342 21.8333 24.2008 21.7188 23.9092 21.4896C23.6175 21.2604 23.4161 20.9653 23.305 20.6042L21.18 12.8958C21.1106 12.6319 21.1557 12.3889 21.3154 12.1667C21.4751 11.9444 21.6939 11.8333 21.9717 11.8333H25.93L29.5967 6.375C29.6661 6.26389 29.7633 6.17361 29.8883 6.10417C30.0133 6.03472 30.1453 6 30.2842 6C30.4231 6 30.555 6.03472 30.68 6.10417C30.805 6.17361 30.9022 6.26389 30.9717 6.375L34.6383 11.8333H38.6383C38.9161 11.8333 39.1349 11.9444 39.2946 12.1667C39.4543 12.3889 39.4994 12.6319 39.43 12.8958L37.305 20.6042C37.1939 20.9653 36.9925 21.2604 36.7008 21.4896C36.4092 21.7188 36.0758 21.8333 35.7008 21.8333H24.9092ZM24.8883 20.1667H35.7217L37.555 13.5H23.055L24.8883 20.1667ZM30.305 18.5C30.7633 18.5 31.1557 18.3368 31.4821 18.0104C31.8085 17.684 31.9717 17.2917 31.9717 16.8333C31.9717 16.375 31.8085 15.9826 31.4821 15.6562C31.1557 15.3299 30.7633 15.1667 30.305 15.1667C29.8467 15.1667 29.4543 15.3299 29.1279 15.6562C28.8015 15.9826 28.6383 16.375 28.6383 16.8333C28.6383 17.2917 28.8015 17.684 29.1279 18.0104C29.4543 18.3368 29.8467 18.5 30.305 18.5ZM27.9508 11.8333H32.6383L30.2842 8.33333L27.9508 11.8333Z" fill="#A16207" fill-opacity="0.5"/>
<path d="M19.4937 32.9016C19.7368 32.9016 19.947 32.8672 20.1243 32.7983C20.3015 32.7295 20.4553 32.6394 20.5857 32.5281C20.7161 32.4167 20.8245 32.2908 20.9109 32.1501C20.9973 32.0095 21.0684 31.8674 21.124 31.7239L22.2534 32.1501C22.1626 32.3728 22.0439 32.5911 21.8975 32.8049C21.751 33.0188 21.5679 33.2078 21.3481 33.3718C21.1284 33.5359 20.8669 33.6685 20.5637 33.7695C20.2605 33.8706 19.9038 33.9211 19.4937 33.9211C18.9575 33.9211 18.4932 33.8413 18.1006 33.6816C17.708 33.522 17.3835 33.2993 17.1272 33.0137C16.8708 32.728 16.6804 32.3889 16.5559 31.9963C16.4314 31.6038 16.3691 31.1746 16.3691 30.7087C16.3691 30.2253 16.4314 29.7888 16.5559 29.3992C16.6804 29.0095 16.8687 28.6777 17.1206 28.4038C17.3726 28.1299 17.6912 27.9189 18.0764 27.771C18.4617 27.623 18.915 27.5491 19.4365 27.5491C19.8408 27.5491 20.1946 27.5916 20.4978 27.6765C20.801 27.7615 21.0632 27.8809 21.2844 28.0347C21.5056 28.1885 21.6887 28.3701 21.8337 28.5796C21.9788 28.7891 22.0923 29.0198 22.1743 29.2717L21.0317 29.5837C20.9907 29.4519 20.9277 29.3252 20.8428 29.2036C20.7578 29.082 20.6501 28.9744 20.5198 28.8806C20.3894 28.7869 20.2363 28.7114 20.0605 28.6543C19.8848 28.5972 19.6855 28.5686 19.4629 28.5686C19.1494 28.5686 18.8799 28.6191 18.6543 28.7202C18.4287 28.8213 18.2434 28.9656 18.0984 29.1531C17.9534 29.3406 17.8464 29.5654 17.7776 29.8276C17.7087 30.0898 17.6743 30.3835 17.6743 30.7087C17.6743 31.031 17.7087 31.3262 17.7776 31.5942C17.8464 31.8623 17.9541 32.093 18.1006 32.2864C18.2471 32.4797 18.4353 32.6306 18.6653 32.739C18.8953 32.8474 19.1714 32.9016 19.4937 32.9016ZM28.3785 33.8333L27.8292 32.2512H25.4693L24.92 33.8333H23.6236L25.8824 27.6414H27.4117L29.6617 33.8333H28.3785ZM26.9283 29.4958C26.8932 29.3933 26.8587 29.29 26.825 29.186C26.7914 29.082 26.7621 28.9868 26.7372 28.9004C26.7123 28.814 26.6917 28.7429 26.6756 28.6873C26.6595 28.6316 26.65 28.6008 26.6471 28.595C26.6441 28.6038 26.6354 28.636 26.6207 28.6917C26.6061 28.7473 26.5863 28.8176 26.5614 28.9026C26.5365 28.9875 26.5072 29.082 26.4735 29.186C26.4398 29.29 26.4054 29.3933 26.3702 29.4958L25.7594 31.2756H27.5392L26.9283 29.4958ZM35.655 33.8333L34.218 31.4822H32.6975V33.8333H31.4011V27.6414H34.4948C34.8815 27.6414 35.2192 27.6846 35.5078 27.771C35.7963 27.8574 36.0373 27.9805 36.2307 28.1401C36.424 28.2998 36.5683 28.4932 36.6635 28.7202C36.7587 28.9473 36.8063 29.2029 36.8063 29.4871C36.8063 29.7185 36.7719 29.9302 36.7031 30.1221C36.6342 30.314 36.539 30.4846 36.4174 30.634C36.2958 30.7834 36.1516 30.9087 35.9846 31.0098C35.8176 31.1108 35.6359 31.1848 35.4396 31.2317L37.114 33.8333H35.655ZM35.5012 29.5398C35.5012 29.238 35.4023 29.0139 35.2045 28.8674C35.0068 28.7209 34.7248 28.6477 34.3586 28.6477H32.6975V30.4758H34.3938C34.5871 30.4758 34.7534 30.4531 34.8925 30.4077C35.0317 30.3623 35.1459 30.2979 35.2353 30.2144C35.3247 30.1309 35.3913 30.032 35.4353 29.9177C35.4792 29.8035 35.5012 29.6775 35.5012 29.5398ZM41.5955 28.6433V33.8333H40.2991V28.6433H38.2996V27.6414H43.5994V28.6433H41.5955Z" fill="#A16207" fill-opacity="0.5"/>
</svg>
