<svg width="82" height="45" viewBox="0 0 82 45" fill="none" xmlns="http://www.w3.org/2000/svg">
<path d="M32.4867 22.6667V7.66667C32.4867 7.20833 32.6499 6.81597 32.9763 6.48958C33.3027 6.16319 33.695 6 34.1534 6H47.4867C47.945 6 48.3374 6.16319 48.6638 6.48958C48.9902 6.81597 49.1534 7.20833 49.1534 7.66667V17.6667C49.1534 18.125 48.9902 18.5174 48.6638 18.8438C48.3374 19.1701 47.945 19.3333 47.4867 19.3333H35.82L32.4867 22.6667ZM35.1117 17.6667H47.4867V7.66667H34.1534V18.6042L35.1117 17.6667ZM34.1534 17.6667V7.66667V17.6667Z" fill="#A16207" fill-opacity="0.5"/>
<path d="M19.4937 33.7351C19.7368 33.7351 19.947 33.7007 20.1243 33.6318C20.3015 33.563 20.4553 33.4729 20.5857 33.3616C20.7161 33.2502 20.8245 33.1243 20.9109 32.9836C20.9973 32.843 21.0684 32.7009 21.124 32.5574L22.2534 32.9836C22.1626 33.2063 22.0439 33.4246 21.8975 33.6384C21.751 33.8523 21.5679 34.0413 21.3481 34.2053C21.1284 34.3694 20.8669 34.502 20.5637 34.603C20.2605 34.7041 19.9038 34.7546 19.4937 34.7546C18.9575 34.7546 18.4932 34.6748 18.1006 34.5151C17.708 34.3555 17.3835 34.1328 17.1272 33.8472C16.8708 33.5615 16.6804 33.2224 16.5559 32.8298C16.4314 32.4373 16.3691 32.0081 16.3691 31.5422C16.3691 31.0588 16.4314 30.6223 16.5559 30.2327C16.6804 29.843 16.8687 29.5112 17.1206 29.2373C17.3726 28.9634 17.6912 28.7524 18.0764 28.6045C18.4617 28.4565 18.915 28.3826 19.4365 28.3826C19.8408 28.3826 20.1946 28.425 20.4978 28.51C20.801 28.595 21.0632 28.7144 21.2844 28.8682C21.5056 29.022 21.6887 29.2036 21.8337 29.4131C21.9788 29.6226 22.0923 29.8533 22.1743 30.1052L21.0317 30.4172C20.9907 30.2854 20.9277 30.1587 20.8428 30.0371C20.7578 29.9155 20.6501 29.8079 20.5198 29.7141C20.3894 29.6204 20.2363 29.5449 20.0605 29.4878C19.8848 29.4307 19.6855 29.4021 19.4629 29.4021C19.1494 29.4021 18.8799 29.4526 18.6543 29.5537C18.4287 29.6548 18.2434 29.7991 18.0984 29.9866C17.9534 30.1741 17.8464 30.3989 17.7776 30.6611C17.7087 30.9233 17.6743 31.217 17.6743 31.5422C17.6743 31.8645 17.7087 32.1597 17.7776 32.4277C17.8464 32.6958 17.9541 32.9265 18.1006 33.1199C18.2471 33.3132 18.4353 33.4641 18.6653 33.5725C18.8953 33.6809 19.1714 33.7351 19.4937 33.7351ZM30.0221 31.5422C30.0221 32.0256 29.9503 32.4651 29.8067 32.8606C29.6632 33.2561 29.4566 33.5945 29.1871 33.8757C28.9176 34.157 28.5887 34.3738 28.2005 34.5261C27.8124 34.6785 27.3736 34.7546 26.8844 34.7546C26.3658 34.7546 25.9125 34.6748 25.5243 34.5151C25.1361 34.3555 24.8116 34.1328 24.5509 33.8472C24.2901 33.5615 24.0946 33.2224 23.9642 32.8298C23.8338 32.4373 23.7687 32.0081 23.7687 31.5422C23.7687 31.0588 23.8368 30.6223 23.973 30.2327C24.1092 29.843 24.3099 29.5112 24.575 29.2373C24.8402 28.9634 25.1668 28.7524 25.555 28.6045C25.9432 28.4565 26.3893 28.3826 26.8932 28.3826C27.3971 28.3826 27.8431 28.4573 28.2313 28.6067C28.6195 28.7561 28.9461 28.9685 29.2113 29.2439C29.4764 29.5193 29.6778 29.8511 29.8155 30.2393C29.9532 30.6274 30.0221 31.0618 30.0221 31.5422ZM28.6993 31.5422C28.6993 31.217 28.6605 30.9233 28.5829 30.6611C28.5052 30.3989 28.3902 30.1741 28.2379 29.9866C28.0855 29.7991 27.8973 29.6548 27.6732 29.5537C27.4491 29.4526 27.1891 29.4021 26.8932 29.4021C26.5914 29.4021 26.327 29.4526 26.1 29.5537C25.8729 29.6548 25.6832 29.7991 25.5309 29.9866C25.3785 30.1741 25.2643 30.3989 25.1881 30.6611C25.1119 30.9233 25.0738 31.217 25.0738 31.5422C25.0738 31.8645 25.1126 32.1597 25.1903 32.4277C25.2679 32.6958 25.3829 32.9265 25.5353 33.1199C25.6876 33.3132 25.8766 33.4641 26.1021 33.5725C26.3277 33.6809 26.5885 33.7351 26.8844 33.7351C27.2008 33.7351 27.4732 33.6802 27.7018 33.5703C27.9303 33.4604 28.1185 33.3081 28.2665 33.1133C28.4144 32.9185 28.5235 32.687 28.5938 32.4189C28.6642 32.1509 28.6993 31.8586 28.6993 31.5422ZM35.6726 34.6667L32.9743 29.8987C32.989 30.0276 33.0021 30.1565 33.0139 30.2854C33.0256 30.3967 33.0351 30.5168 33.0424 30.6458C33.0498 30.7747 33.0534 30.8977 33.0534 31.0149V34.6667H31.9021V28.4749H33.383L36.1208 33.2825C36.1062 33.1594 36.093 33.0305 36.0813 32.8958C36.0695 32.7815 36.06 32.6526 36.0527 32.509C36.0454 32.3655 36.0417 32.2205 36.0417 32.074V28.4749H37.1931V34.6667H35.6726ZM42.0965 29.4768V34.6667H40.8001V29.4768H38.8006V28.4749H44.1004V29.4768H42.0965ZM49.4081 34.6667L48.8588 33.0847H46.4989L45.9496 34.6667H44.6532L46.912 28.4749H48.4413L50.6913 34.6667H49.4081ZM47.9579 30.3293C47.9228 30.2268 47.8883 30.1235 47.8546 30.0195C47.8209 29.9155 47.7917 29.8203 47.7667 29.7339C47.7418 29.6475 47.7213 29.5764 47.7052 29.5208C47.6891 29.4651 47.6796 29.4343 47.6767 29.4285C47.6737 29.4373 47.6649 29.4695 47.6503 29.5251C47.6356 29.5808 47.6159 29.6511 47.591 29.7361C47.5661 29.821 47.5368 29.9155 47.5031 30.0195C47.4694 30.1235 47.435 30.2268 47.3998 30.3293L46.789 32.1091H48.5688L47.9579 30.3293ZM55.3223 33.7351C55.5654 33.7351 55.7756 33.7007 55.9529 33.6318C56.1301 33.563 56.2839 33.4729 56.4143 33.3616C56.5447 33.2502 56.6531 33.1243 56.7395 32.9836C56.8259 32.843 56.897 32.7009 56.9526 32.5574L58.082 32.9836C57.9912 33.2063 57.8726 33.4246 57.7261 33.6384C57.5796 33.8523 57.3965 34.0413 57.1768 34.2053C56.957 34.3694 56.6956 34.502 56.3923 34.603C56.0891 34.7041 55.7324 34.7546 55.3223 34.7546C54.7861 34.7546 54.3218 34.6748 53.9292 34.5151C53.5366 34.3555 53.2122 34.1328 52.9558 33.8472C52.6995 33.5615 52.509 33.2224 52.3845 32.8298C52.26 32.4373 52.1978 32.0081 52.1978 31.5422C52.1978 31.0588 52.26 30.6223 52.3845 30.2327C52.509 29.843 52.6973 29.5112 52.9492 29.2373C53.2012 28.9634 53.5198 28.7524 53.905 28.6045C54.2903 28.4565 54.7437 28.3826 55.2651 28.3826C55.6694 28.3826 56.0232 28.425 56.3264 28.51C56.6296 28.595 56.8918 28.7144 57.113 28.8682C57.3342 29.022 57.5173 29.2036 57.6624 29.4131C57.8074 29.6226 57.9209 29.8533 58.0029 30.1052L56.8604 30.4172C56.8193 30.2854 56.7563 30.1587 56.6714 30.0371C56.5864 29.9155 56.4788 29.8079 56.3484 29.7141C56.218 29.6204 56.0649 29.5449 55.8892 29.4878C55.7134 29.4307 55.5142 29.4021 55.2915 29.4021C54.978 29.4021 54.7085 29.4526 54.4829 29.5537C54.2573 29.6548 54.072 29.7991 53.927 29.9866C53.782 30.1741 53.675 30.3989 53.6062 30.6611C53.5374 30.9233 53.5029 31.217 53.5029 31.5422C53.5029 31.8645 53.5374 32.1597 53.6062 32.4277C53.675 32.6958 53.7827 32.9265 53.9292 33.1199C54.0757 33.3132 54.2639 33.4641 54.4939 33.5725C54.7239 33.6809 55 33.7351 55.3223 33.7351ZM62.6251 29.4768V34.6667H61.3287V29.4768H59.3292V28.4749H64.629V29.4768H62.6251Z" fill="#A16207" fill-opacity="0.5"/>
</svg>
