<svg width="52" height="52" viewBox="0 0 52 52" fill="none" xmlns="http://www.w3.org/2000/svg">
<g filter="url(#filter0_d_4_2797)">
<rect x="2" y="1" width="48" height="48" rx="24" fill="white" shape-rendering="crispEdges"/>
<path d="M20 27H28V25H20V27ZM20 24H32V22H20V24ZM20 21H32V19H20V21ZM16 35V17C16 16.45 16.1958 15.9792 16.5875 15.5875C16.9792 15.1958 17.45 15 18 15H34C34.55 15 35.0208 15.1958 35.4125 15.5875C35.8042 15.9792 36 16.45 36 17V29C36 29.55 35.8042 30.0208 35.4125 30.4125C35.0208 30.8042 34.55 31 34 31H20L16 35ZM19.15 29H34V17H18V30.125L19.15 29ZM18 29V17V29Z" fill="#776300"/>
</g>
<defs>
<filter id="filter0_d_4_2797" x="0" y="0" width="52" height="52" filterUnits="userSpaceOnUse" color-interpolation-filters="sRGB">
<feFlood flood-opacity="0" result="BackgroundImageFix"/>
<feColorMatrix in="SourceAlpha" type="matrix" values="0 0 0 0 0 0 0 0 0 0 0 0 0 0 0 0 0 0 127 0" result="hardAlpha"/>
<feOffset dy="1"/>
<feGaussianBlur stdDeviation="1"/>
<feComposite in2="hardAlpha" operator="out"/>
<feColorMatrix type="matrix" values="0 0 0 0 0 0 0 0 0 0 0 0 0 0 0 0 0 0 0.05 0"/>
<feBlend mode="normal" in2="BackgroundImageFix" result="effect1_dropShadow_4_2797"/>
<feBlend mode="normal" in="SourceGraphic" in2="effect1_dropShadow_4_2797" result="shape"/>
</filter>
</defs>
</svg>
