<svg width="52" height="52" viewBox="0 0 52 52" fill="none" xmlns="http://www.w3.org/2000/svg">
<g filter="url(#filter0_d_4_2800)">
<rect x="2" y="1" width="48" height="48" rx="24" fill="white" shape-rendering="crispEdges"/>
<path d="M26 30.5C27.25 30.5 28.3125 30.0625 29.1875 29.1875C30.0625 28.3125 30.5 27.25 30.5 26C30.5 24.75 30.0625 23.6875 29.1875 22.8125C28.3125 21.9375 27.25 21.5 26 21.5C24.75 21.5 23.6875 21.9375 22.8125 22.8125C21.9375 23.6875 21.5 24.75 21.5 26C21.5 27.25 21.9375 28.3125 22.8125 29.1875C23.6875 30.0625 24.75 30.5 26 30.5ZM26 28.5C25.3 28.5 24.7083 28.2583 24.225 27.775C23.7417 27.2917 23.5 26.7 23.5 26C23.5 25.3 23.7417 24.7083 24.225 24.225C24.7083 23.7417 25.3 23.5 26 23.5C26.7 23.5 27.2917 23.7417 27.775 24.225C28.2583 24.7083 28.5 25.3 28.5 26C28.5 26.7 28.2583 27.2917 27.775 27.775C27.2917 28.2583 26.7 28.5 26 28.5ZM18 34C17.45 34 16.9792 33.8042 16.5875 33.4125C16.1958 33.0208 16 32.55 16 32V20C16 19.45 16.1958 18.9792 16.5875 18.5875C16.9792 18.1958 17.45 18 18 18H21.15L23 16H29L30.85 18H34C34.55 18 35.0208 18.1958 35.4125 18.5875C35.8042 18.9792 36 19.45 36 20V32C36 32.55 35.8042 33.0208 35.4125 33.4125C35.0208 33.8042 34.55 34 34 34H18ZM18 32H34V20H29.95L28.125 18H23.875L22.05 20H18V32Z" fill="#776300"/>
</g>
<defs>
<filter id="filter0_d_4_2800" x="0" y="0" width="52" height="52" filterUnits="userSpaceOnUse" color-interpolation-filters="sRGB">
<feFlood flood-opacity="0" result="BackgroundImageFix"/>
<feColorMatrix in="SourceAlpha" type="matrix" values="0 0 0 0 0 0 0 0 0 0 0 0 0 0 0 0 0 0 127 0" result="hardAlpha"/>
<feOffset dy="1"/>
<feGaussianBlur stdDeviation="1"/>
<feComposite in2="hardAlpha" operator="out"/>
<feColorMatrix type="matrix" values="0 0 0 0 0 0 0 0 0 0 0 0 0 0 0 0 0 0 0.05 0"/>
<feBlend mode="normal" in2="BackgroundImageFix" result="effect1_dropShadow_4_2800"/>
<feBlend mode="normal" in="SourceGraphic" in2="effect1_dropShadow_4_2800" result="shape"/>
</filter>
</defs>
</svg>
