<svg width="79" height="55" viewBox="0 0 79 55" fill="none" xmlns="http://www.w3.org/2000/svg">
<path d="M33.055 24H36.055V18H42.055V24H45.055V15L39.055 10.5L33.055 15V24ZM31.055 26V14L39.055 8L47.055 14V26H40.055V20H38.055V26H31.055Z" fill="#A16207" fill-opacity="0.5"/>
<path d="M20.792 42V33.86H22.288V37.204H25.687V33.86H27.183V42H25.687V38.502H22.288V42H20.792ZM33.629 42.11C32.9617 42.11 32.375 41.9908 31.869 41.7525C31.363 41.5142 30.9395 41.1952 30.5985 40.7955C30.2575 40.3958 30.0008 39.9467 29.8285 39.448C29.6562 38.9493 29.57 38.4397 29.57 37.919C29.57 37.3983 29.6562 36.8905 29.8285 36.3955C30.0008 35.9005 30.2575 35.455 30.5985 35.059C30.9395 34.663 31.363 34.3458 31.869 34.1075C32.375 33.8692 32.9617 33.75 33.629 33.75C34.2963 33.75 34.883 33.8692 35.389 34.1075C35.895 34.3458 36.3185 34.663 36.6595 35.059C37.0005 35.455 37.2572 35.9005 37.4295 36.3955C37.6018 36.8905 37.688 37.3983 37.688 37.919C37.688 38.4397 37.6018 38.9493 37.4295 39.448C37.2572 39.9467 37.0005 40.3958 36.6595 40.7955C36.3185 41.1952 35.895 41.5142 35.389 41.7525C34.883 41.9908 34.2963 42.11 33.629 42.11ZM33.629 40.757C34.179 40.757 34.6392 40.6213 35.0095 40.35C35.3798 40.0787 35.6622 39.7267 35.8565 39.294C36.0508 38.8613 36.148 38.403 36.148 37.919C36.148 37.4423 36.0508 36.9895 35.8565 36.5605C35.6622 36.1315 35.3798 35.7813 35.0095 35.51C34.6392 35.2387 34.179 35.103 33.629 35.103C33.079 35.103 32.617 35.2387 32.243 35.51C31.869 35.7813 31.5867 36.1315 31.396 36.5605C31.2053 36.9895 31.11 37.4423 31.11 37.919C31.11 38.403 31.2053 38.8613 31.396 39.294C31.5867 39.7267 31.869 40.0787 32.243 40.35C32.617 40.6213 33.079 40.757 33.629 40.757ZM40.075 42V33.86H42.066L44.101 38.271L46.18 33.86H48.138V42H46.664V36.115L44.794 40.031H43.408L41.549 36.093V42H40.075ZM50.822 42V33.86H56.278V35.158H52.318V37.226H55.783V38.491H52.318V40.702H56.333V42H50.822Z" fill="#A16207" fill-opacity="0.5"/>
</svg>
