<svg width="52" height="52" viewBox="0 0 52 52" fill="none" xmlns="http://www.w3.org/2000/svg">
<g filter="url(#filter0_d_4_2803)">
<rect x="2" y="1" width="48" height="48" rx="24" fill="white" shape-rendering="crispEdges"/>
<path d="M26 35C24.6167 35 23.3167 34.7375 22.1 34.2125C20.8833 33.6875 19.825 32.975 18.925 32.075C18.025 31.175 17.3125 30.1167 16.7875 28.9C16.2625 27.6833 16 26.3833 16 25C16 23.6167 16.2625 22.3167 16.7875 21.1C17.3125 19.8833 18.025 18.825 18.925 17.925C19.825 17.025 20.8833 16.3125 22.1 15.7875C23.3167 15.2625 24.6167 15 26 15C27.3833 15 28.6833 15.2625 29.9 15.7875C31.1167 16.3125 32.175 17.025 33.075 17.925C33.975 18.825 34.6875 19.8833 35.2125 21.1C35.7375 22.3167 36 23.6167 36 25V26.45C36 27.4333 35.6625 28.2708 34.9875 28.9625C34.3125 29.6542 33.4833 30 32.5 30C31.9167 30 31.3667 29.875 30.85 29.625C30.3333 29.375 29.9 29.0167 29.55 28.55C29.0667 29.0333 28.5208 29.3958 27.9125 29.6375C27.3042 29.8792 26.6667 30 26 30C24.6167 30 23.4375 29.5125 22.4625 28.5375C21.4875 27.5625 21 26.3833 21 25C21 23.6167 21.4875 22.4375 22.4625 21.4625C23.4375 20.4875 24.6167 20 26 20C27.3833 20 28.5625 20.4875 29.5375 21.4625C30.5125 22.4375 31 23.6167 31 25V26.45C31 26.8833 31.1417 27.25 31.425 27.55C31.7083 27.85 32.0667 28 32.5 28C32.9333 28 33.2917 27.85 33.575 27.55C33.8583 27.25 34 26.8833 34 26.45V25C34 22.7667 33.225 20.875 31.675 19.325C30.125 17.775 28.2333 17 26 17C23.7667 17 21.875 17.775 20.325 19.325C18.775 20.875 18 22.7667 18 25C18 27.2333 18.775 29.125 20.325 30.675C21.875 32.225 23.7667 33 26 33H31V35H26ZM26 28C26.8333 28 27.5417 27.7083 28.125 27.125C28.7083 26.5417 29 25.8333 29 25C29 24.1667 28.7083 23.4583 28.125 22.875C27.5417 22.2917 26.8333 22 26 22C25.1667 22 24.4583 22.2917 23.875 22.875C23.2917 23.4583 23 24.1667 23 25C23 25.8333 23.2917 26.5417 23.875 27.125C24.4583 27.7083 25.1667 28 26 28Z" fill="#776300"/>
</g>
<defs>
<filter id="filter0_d_4_2803" x="0" y="0" width="52" height="52" filterUnits="userSpaceOnUse" color-interpolation-filters="sRGB">
<feFlood flood-opacity="0" result="BackgroundImageFix"/>
<feColorMatrix in="SourceAlpha" type="matrix" values="0 0 0 0 0 0 0 0 0 0 0 0 0 0 0 0 0 0 127 0" result="hardAlpha"/>
<feOffset dy="1"/>
<feGaussianBlur stdDeviation="1"/>
<feComposite in2="hardAlpha" operator="out"/>
<feColorMatrix type="matrix" values="0 0 0 0 0 0 0 0 0 0 0 0 0 0 0 0 0 0 0.05 0"/>
<feBlend mode="normal" in2="BackgroundImageFix" result="effect1_dropShadow_4_2803"/>
<feBlend mode="normal" in="SourceGraphic" in2="effect1_dropShadow_4_2803" result="shape"/>
</filter>
</defs>
</svg>
