<svg width="48" height="48" viewBox="0 0 48 48" fill="none" xmlns="http://www.w3.org/2000/svg">
<rect width="48" height="48" rx="24" fill="#FFFAE1"/>
<path d="M18 32C17.1667 32 16.4583 31.7083 15.875 31.125C15.2917 30.5417 15 29.8333 15 29H13V18C13 17.45 13.1958 16.9792 13.5875 16.5875C13.9792 16.1958 14.45 16 15 16H29V20H32L35 24V29H33C33 29.8333 32.7083 30.5417 32.125 31.125C31.5417 31.7083 30.8333 32 30 32C29.1667 32 28.4583 31.7083 27.875 31.125C27.2917 30.5417 27 29.8333 27 29H21C21 29.8333 20.7083 30.5417 20.125 31.125C19.5417 31.7083 18.8333 32 18 32ZM18 30C18.2833 30 18.5208 29.9042 18.7125 29.7125C18.9042 29.5208 19 29.2833 19 29C19 28.7167 18.9042 28.4792 18.7125 28.2875C18.5208 28.0958 18.2833 28 18 28C17.7167 28 17.4792 28.0958 17.2875 28.2875C17.0958 28.4792 17 28.7167 17 29C17 29.2833 17.0958 29.5208 17.2875 29.7125C17.4792 29.9042 17.7167 30 18 30ZM15 27H15.8C16.0833 26.7 16.4083 26.4583 16.775 26.275C17.1417 26.0917 17.55 26 18 26C18.45 26 18.8583 26.0917 19.225 26.275C19.5917 26.4583 19.9167 26.7 20.2 27H27V18H15V27ZM30 30C30.2833 30 30.5208 29.9042 30.7125 29.7125C30.9042 29.5208 31 29.2833 31 29C31 28.7167 30.9042 28.4792 30.7125 28.2875C30.5208 28.0958 30.2833 28 30 28C29.7167 28 29.4792 28.0958 29.2875 28.2875C29.0958 28.4792 29 28.7167 29 29C29 29.2833 29.0958 29.5208 29.2875 29.7125C29.4792 29.9042 29.7167 30 30 30ZM29 25H33.25L31 22H29V25Z" fill="#776300"/>
</svg>
