<svg width="62" height="43" viewBox="0 0 62 43" fill="none" xmlns="http://www.w3.org/2000/svg">
<path d="M38.0549 12.7083V19.3333C38.0549 19.7917 37.8918 20.184 37.5654 20.5104C37.239 20.8368 36.8466 21 36.3883 21H24.7216C24.2633 21 23.8709 20.8368 23.5445 20.5104C23.2181 20.184 23.0549 19.7917 23.0549 19.3333V12.7083C22.7355 12.4167 22.489 12.0417 22.3154 11.5833C22.1417 11.125 22.1383 10.625 22.3049 10.0833L23.1799 7.25C23.2911 6.88889 23.489 6.59028 23.7737 6.35417C24.0584 6.11806 24.3883 6 24.7633 6H36.3466C36.7216 6 37.048 6.11458 37.3258 6.34375C37.6036 6.57292 37.8049 6.875 37.9299 7.25L38.8049 10.0833C38.9716 10.625 38.9681 11.1181 38.7945 11.5625C38.6209 12.0069 38.3744 12.3889 38.0549 12.7083ZM32.3883 11.8333C32.7633 11.8333 33.048 11.7049 33.2424 11.4479C33.4369 11.191 33.5133 10.9028 33.4716 10.5833L33.0133 7.66667H31.3883V10.75C31.3883 11.0417 31.4855 11.2951 31.6799 11.5104C31.8744 11.7257 32.1105 11.8333 32.3883 11.8333ZM28.6383 11.8333C28.9577 11.8333 29.2181 11.7257 29.4195 11.5104C29.6209 11.2951 29.7216 11.0417 29.7216 10.75V7.66667H28.0966L27.6383 10.5833C27.5827 10.9167 27.6556 11.2083 27.857 11.4583C28.0584 11.7083 28.3188 11.8333 28.6383 11.8333ZM24.9299 11.8333C25.1799 11.8333 25.3987 11.7431 25.5862 11.5625C25.7737 11.3819 25.8883 11.1528 25.9299 10.875L26.3883 7.66667H24.7633L23.9299 10.4583C23.8466 10.7361 23.8917 11.0347 24.0654 11.3542C24.239 11.6736 24.5272 11.8333 24.9299 11.8333ZM36.1799 11.8333C36.5827 11.8333 36.8744 11.6736 37.0549 11.3542C37.2355 11.0347 37.2772 10.7361 37.1799 10.4583L36.3049 7.66667H34.7216L35.1799 10.875C35.2216 11.1528 35.3362 11.3819 35.5237 11.5625C35.7112 11.7431 35.9299 11.8333 36.1799 11.8333ZM24.7216 19.3333H36.3883V13.4583C36.3188 13.4861 36.2737 13.5 36.2529 13.5C36.232 13.5 36.2077 13.5 36.1799 13.5C35.8049 13.5 35.4751 13.4375 35.1904 13.3125C34.9056 13.1875 34.6244 12.9861 34.3466 12.7083C34.0966 12.9583 33.8119 13.1528 33.4924 13.2917C33.173 13.4306 32.8327 13.5 32.4716 13.5C32.0966 13.5 31.7459 13.4306 31.4195 13.2917C31.0931 13.1528 30.8049 12.9583 30.5549 12.7083C30.3188 12.9583 30.0445 13.1528 29.732 13.2917C29.4195 13.4306 29.0827 13.5 28.7216 13.5C28.3188 13.5 27.9542 13.4306 27.6279 13.2917C27.3015 13.1528 27.0133 12.9583 26.7633 12.7083C26.4716 13 26.1834 13.2049 25.8987 13.3229C25.614 13.441 25.2911 13.5 24.9299 13.5C24.9022 13.5 24.8709 13.5 24.8362 13.5C24.8015 13.5 24.7633 13.4861 24.7216 13.4583V19.3333ZM36.3883 19.3333H24.7216C24.7633 19.3333 24.8015 19.3333 24.8362 19.3333C24.8709 19.3333 24.9022 19.3333 24.9299 19.3333C25.2911 19.3333 25.614 19.3333 25.8987 19.3333C26.1834 19.3333 26.4716 19.3333 26.7633 19.3333C26.8883 19.3333 27.0237 19.3333 27.1695 19.3333C27.3154 19.3333 27.4716 19.3333 27.6383 19.3333C27.8049 19.3333 27.9786 19.3333 28.1591 19.3333C28.3397 19.3333 28.5272 19.3333 28.7216 19.3333C28.9022 19.3333 29.0758 19.3333 29.2424 19.3333C29.4091 19.3333 29.5723 19.3333 29.732 19.3333C29.8917 19.3333 30.0411 19.3333 30.1799 19.3333C30.3188 19.3333 30.4438 19.3333 30.5549 19.3333C30.8049 19.3333 31.0931 19.3333 31.4195 19.3333C31.7459 19.3333 32.0966 19.3333 32.4716 19.3333C32.6522 19.3333 32.8258 19.3333 32.9924 19.3333C33.1591 19.3333 33.3223 19.3333 33.482 19.3333C33.6417 19.3333 33.7945 19.3333 33.9404 19.3333C34.0862 19.3333 34.2216 19.3333 34.3466 19.3333C34.6244 19.3333 34.9056 19.3333 35.1904 19.3333C35.4751 19.3333 35.8049 19.3333 36.1799 19.3333C36.2077 19.3333 36.232 19.3333 36.2529 19.3333C36.2737 19.3333 36.3188 19.3333 36.3883 19.3333Z" fill="#A16207" fill-opacity="0.5"/>
<path d="M21.6514 31.2158C21.6514 31.4971 21.6001 31.7527 21.4976 31.9827C21.395 32.2126 21.2361 32.4097 21.0208 32.5737C20.8054 32.7378 20.53 32.8645 20.1946 32.9539C19.8591 33.0432 19.46 33.0879 18.9971 33.0879C18.5869 33.0879 18.2251 33.0513 17.9116 32.978C17.5981 32.9048 17.3293 32.7964 17.1052 32.6528C16.8811 32.5093 16.6995 32.3313 16.5603 32.1189C16.4211 31.9065 16.3208 31.6626 16.2593 31.3872L17.5117 31.1807C17.5469 31.3184 17.5981 31.4443 17.6655 31.5586C17.7329 31.6729 17.8259 31.7717 17.9446 31.8552C18.0632 31.9387 18.2112 32.0032 18.3884 32.0486C18.5657 32.094 18.7803 32.1167 19.0322 32.1167C19.4717 32.1167 19.8079 32.05 20.0408 31.9167C20.2737 31.7834 20.3901 31.5747 20.3901 31.2905C20.3901 31.1206 20.3433 30.9814 20.2495 30.873C20.1558 30.7646 20.0312 30.6753 19.876 30.605C19.7207 30.5347 19.542 30.4761 19.3398 30.4292C19.1377 30.3823 18.9268 30.3369 18.707 30.293C18.5312 30.252 18.3555 30.2095 18.1797 30.1655C18.0039 30.1216 17.8362 30.0688 17.6765 30.0073C17.5168 29.9458 17.3682 29.8726 17.2305 29.7876C17.0928 29.7026 16.9734 29.5979 16.8723 29.4734C16.7712 29.3489 16.6921 29.2031 16.635 29.0361C16.5779 28.8691 16.5493 28.6729 16.5493 28.4473C16.5493 28.1396 16.6108 27.876 16.7339 27.6562C16.8569 27.4365 17.0276 27.2571 17.2458 27.1179C17.4641 26.9788 17.7241 26.877 18.0259 26.8125C18.3276 26.748 18.6572 26.7158 19.0146 26.7158C19.4189 26.7158 19.7654 26.7473 20.054 26.8103C20.3425 26.8733 20.5842 26.9692 20.7791 27.0981C20.9739 27.2271 21.1277 27.3889 21.2405 27.5837C21.3533 27.7786 21.436 28.0063 21.4888 28.2671L20.2319 28.4385C20.1675 28.1719 20.0364 27.9712 19.8386 27.8364C19.6409 27.7017 19.3574 27.6343 18.9883 27.6343C18.7598 27.6343 18.5701 27.6541 18.4192 27.6936C18.2683 27.7332 18.1482 27.7866 18.0588 27.854C17.9695 27.9214 17.9058 27.9998 17.8677 28.0891C17.8296 28.1785 17.8105 28.2729 17.8105 28.3726C17.8105 28.5249 17.8472 28.6501 17.9204 28.7483C17.9937 28.8464 18.0962 28.9285 18.228 28.9944C18.3599 29.0603 18.5173 29.116 18.7004 29.1614C18.8835 29.2068 19.085 29.2529 19.3047 29.2998C19.498 29.3408 19.6899 29.384 19.8804 29.4294C20.0708 29.4749 20.2524 29.5283 20.4253 29.5898C20.5981 29.6514 20.7593 29.7261 20.9087 29.814C21.0581 29.9019 21.1877 30.0095 21.2976 30.137C21.4075 30.2644 21.4939 30.416 21.5569 30.5918C21.6199 30.7676 21.6514 30.9756 21.6514 31.2158ZM27.4996 33V30.3457H24.8014V33H23.505V26.8081H24.8014V29.2734H27.4996V26.8081H28.796V33H27.4996ZM36.925 29.8755C36.925 30.3589 36.8532 30.7983 36.7097 31.1938C36.5661 31.5894 36.3596 31.9277 36.09 32.209C35.8205 32.4902 35.4917 32.707 35.1035 32.8594C34.7153 33.0117 34.2766 33.0879 33.7873 33.0879C33.2688 33.0879 32.8154 33.0081 32.4272 32.8484C32.039 32.6887 31.7146 32.4661 31.4538 32.1804C31.1931 31.8948 30.9975 31.5557 30.8671 31.1631C30.7368 30.7705 30.6716 30.3413 30.6716 29.8755C30.6716 29.3921 30.7397 28.9556 30.8759 28.5659C31.0122 28.1763 31.2128 27.8445 31.478 27.5706C31.7431 27.2966 32.0698 27.0857 32.458 26.9377C32.8461 26.7898 33.2922 26.7158 33.7961 26.7158C34.3 26.7158 34.746 26.7905 35.1342 26.9399C35.5224 27.0894 35.8491 27.3018 36.1142 27.5771C36.3793 27.8525 36.5808 28.1843 36.7185 28.5725C36.8562 28.9607 36.925 29.395 36.925 29.8755ZM35.6022 29.8755C35.6022 29.5503 35.5634 29.2566 35.4858 28.9944C35.4082 28.7322 35.2932 28.5073 35.1408 28.3198C34.9885 28.1323 34.8002 27.988 34.5761 27.887C34.352 27.7859 34.092 27.7354 33.7961 27.7354C33.4943 27.7354 33.2299 27.7859 33.0029 27.887C32.7758 27.988 32.5861 28.1323 32.4338 28.3198C32.2814 28.5073 32.1672 28.7322 32.091 28.9944C32.0148 29.2566 31.9768 29.5503 31.9768 29.8755C31.9768 30.1978 32.0156 30.4929 32.0932 30.761C32.1708 31.0291 32.2858 31.2598 32.4382 31.4531C32.5905 31.6465 32.7795 31.7974 33.0051 31.9058C33.2307 32.0142 33.4914 32.0684 33.7873 32.0684C34.1037 32.0684 34.3762 32.0134 34.6047 31.9036C34.8332 31.7937 35.0214 31.6414 35.1694 31.4465C35.3173 31.2517 35.4265 31.0203 35.4968 30.7522C35.5671 30.4841 35.6022 30.1919 35.6022 29.8755ZM43.8982 28.7681C43.8982 29.0347 43.8536 29.2917 43.7642 29.5393C43.6749 29.7869 43.5379 30.0059 43.3533 30.1963C43.1688 30.3867 42.9344 30.5383 42.6502 30.6511C42.366 30.7639 42.0291 30.8203 41.6395 30.8203H40.1014V33H38.805V26.8081H41.5867C41.9822 26.8081 42.325 26.8557 42.615 26.9509C42.9051 27.0461 43.1453 27.1802 43.3357 27.353C43.5262 27.5259 43.6675 27.7324 43.7598 27.9727C43.8521 28.2129 43.8982 28.478 43.8982 28.7681ZM42.5931 28.79C42.5931 28.4707 42.4971 28.2283 42.3052 28.0627C42.1133 27.8972 41.8255 27.8145 41.4417 27.8145H40.1014V29.8228H41.4769C41.6702 29.8228 41.8365 29.7979 41.9756 29.748C42.1148 29.6982 42.2305 29.6279 42.3228 29.5371C42.4151 29.4463 42.4832 29.3372 42.5271 29.2097C42.5711 29.0823 42.5931 28.9424 42.5931 28.79Z" fill="#A16207" fill-opacity="0.5"/>
</svg>
