<svg width="52" height="52" viewBox="0 0 52 52" fill="none" xmlns="http://www.w3.org/2000/svg">
<g filter="url(#filter0_d_4_2806)">
<rect x="2" y="1" width="48" height="48" rx="24" fill="white" shape-rendering="crispEdges"/>
<path d="M25.5 27.5L32.5 23L25.5 18.5V27.5ZM22 31C21.45 31 20.9792 30.8042 20.5875 30.4125C20.1958 30.0208 20 29.55 20 29V17C20 16.45 20.1958 15.9792 20.5875 15.5875C20.9792 15.1958 21.45 15 22 15H34C34.55 15 35.0208 15.1958 35.4125 15.5875C35.8042 15.9792 36 16.45 36 17V29C36 29.55 35.8042 30.0208 35.4125 30.4125C35.0208 30.8042 34.55 31 34 31H22ZM22 29H34V17H22V29ZM18 35C17.45 35 16.9792 34.8042 16.5875 34.4125C16.1958 34.0208 16 33.55 16 33V19H18V33H32V35H18ZM22 17V29V17Z" fill="#776300"/>
</g>
<defs>
<filter id="filter0_d_4_2806" x="0" y="0" width="52" height="52" filterUnits="userSpaceOnUse" color-interpolation-filters="sRGB">
<feFlood flood-opacity="0" result="BackgroundImageFix"/>
<feColorMatrix in="SourceAlpha" type="matrix" values="0 0 0 0 0 0 0 0 0 0 0 0 0 0 0 0 0 0 127 0" result="hardAlpha"/>
<feOffset dy="1"/>
<feGaussianBlur stdDeviation="1"/>
<feComposite in2="hardAlpha" operator="out"/>
<feColorMatrix type="matrix" values="0 0 0 0 0 0 0 0 0 0 0 0 0 0 0 0 0 0 0.05 0"/>
<feBlend mode="normal" in2="BackgroundImageFix" result="effect1_dropShadow_4_2806"/>
<feBlend mode="normal" in="SourceGraphic" in2="effect1_dropShadow_4_2806" result="shape"/>
</filter>
</defs>
</svg>
